<svg width="29" height="29" viewBox="0 0 29 29" fill="none" xmlns="http://www.w3.org/2000/svg">
<path d="M9.6665 19.3335V18.3335H10.6665V19.3335H9.6665ZM4.33194 26.0823C3.94142 26.4728 3.30826 26.4728 2.91773 26.0823C2.52721 25.6917 2.52721 25.0586 2.91773 24.6681L4.33194 26.0823ZM8.6665 25.3752V19.3335H10.6665V25.3752H8.6665ZM9.6665 20.3335H3.62484V18.3335H9.6665V20.3335ZM10.3736 20.0406L4.33194 26.0823L2.91773 24.6681L8.9594 18.6264L10.3736 20.0406Z" fill="#424140"/>
<path d="M14.5 25.375H21.375C23.5841 25.375 25.375 23.5841 25.375 21.375V7.625C25.375 5.41586 23.5841 3.625 21.375 3.625H7.625C5.41586 3.625 3.625 5.41586 3.625 7.625V14.5" stroke="#424140" stroke-width="2" stroke-linecap="round"/>
<path d="M10.271 10.271L14.5051 16.3867C15.1586 17.3307 16.471 17.5318 17.3773 16.827L19.7524 14.9797C20.5485 14.3605 21.6812 14.431 22.3944 15.1442L25.3752 18.1249" stroke="#424140" stroke-width="2" stroke-linecap="round"/>
<circle cx="19.9375" cy="9.0625" r="1.8125" fill="#424140"/>
</svg>
