<svg width="37" height="37" viewBox="0 0 37 37" fill="none" xmlns="http://www.w3.org/2000/svg">
<path d="M3.854 6.9375H33.1457" stroke="#33363F" stroke-width="2" stroke-linecap="round"/>
<path d="M8.479 6.9375H28.5207V24.7748C28.5207 25.0193 28.5207 25.1416 28.493 25.2567C28.4685 25.3588 28.4281 25.4563 28.3733 25.5458C28.3115 25.6467 28.225 25.7332 28.052 25.9061L24.3643 29.5939C24.1913 29.7668 24.1049 29.8533 24.004 29.9151C23.9145 29.97 23.8169 30.0104 23.7149 30.0349C23.5998 30.0625 23.4775 30.0625 23.2329 30.0625H10.879C10.0389 30.0625 9.61889 30.0625 9.29802 29.899C9.01578 29.7552 8.7863 29.5257 8.64249 29.2435C8.479 28.9226 8.479 28.5026 8.479 27.6625V6.9375Z" stroke="#33363F" stroke-width="2" stroke-linecap="round"/>
<path d="M18.5 20.8127V12.3335" stroke="#33363F" stroke-width="2" stroke-linecap="round"/>
<path d="M14.646 14.6458L18.4065 11.6375C18.4612 11.5936 18.5391 11.5936 18.5939 11.6375L22.3543 14.6458" stroke="#33363F" stroke-width="2" stroke-linecap="round"/>
<path d="M28.5207 23.896H23.954C23.394 23.896 23.1139 23.896 22.9 24.005C22.7119 24.1009 22.5589 24.2538 22.463 24.442C22.354 24.6559 22.354 24.9359 22.354 25.496V30.0627" stroke="#33363F" stroke-width="2"/>
</svg>
